# xmcd
#
# Track frame offsets: 
#        150
#        18637
#        35120
#        49965
#        59885
#        85247
#        96360
#        114030
#        128192
#        143485
#        158280
#        175352
#        193722
#        227030
#
# Disc length: 4228 seconds
#
# Revision: 3
# Processed by: cddbd v1.5.2PL0 Copyright (c) Steve Scherf et al.
# Submitted via: ExactAudioCopyFreeDBPlugin 1.0
#
DISCID=be10820e
DTITLE=Kinky Friedman - Sold American - 30th Anniversary Edition
DYEAR=2003
DGENRE=Alt. Country
TTITLE0=We Reserve The Right To Refuse Service To You
TTITLE1=Highway Cafe
TTITLE2=Sold American
TTITLE3=Flyin' Down The Freeway
TTITLE4=Ride 'em Jewboy
TTITLE5=Get Your Biscuits In The Oven And Your Buns In The Bed
TTITLE6=High On Jesus
TTITLE7=Ballad Of Charles Whitman, The
TTITLE8=Top Ten Commandments
TTITLE9=Western Union Wire
TTITLE10=Silver Eagle Express
TTITLE11=Nashville Casualty And Life
TTITLE12=Tramp On The Street
TTITLE13=Data Track
EXTD=
EXTT0=
EXTT1=
EXTT2=
EXTT3=
EXTT4=
EXTT5=
EXTT6=
EXTT7=
EXTT8=
EXTT9=
EXTT10=
EXTT11=
EXTT12=
EXTT13=
PLAYORDER=
